<?xml version="1.0" standalone="no"?>
<!DOCTYPE svg PUBLIC "-//W3C//DTD SVG 20010904//EN"
 "http://www.w3.org/TR/2001/REC-SVG-20010904/DTD/svg10.dtd">
<svg version="1.0" xmlns="http://www.w3.org/2000/svg"
 width="450.000000pt" height="450.000000pt" viewBox="0 0 450.000000 450.000000"
 preserveAspectRatio="xMidYMid meet">
<metadata>
Created by potrace 1.11, written by Peter Selinger 2001-2013
</metadata>
<g transform="translate(0.000000,450.000000) scale(0.100000,-0.100000)"
fill="#000000" stroke="none">
<path d="M854 4444 c-27 -31 -58 -66 -69 -78 -11 -12 -49 -56 -85 -96 -36 -41
-72 -81 -80 -90 -8 -9 -44 -49 -80 -90 -59 -68 -84 -96 -164 -184 -14 -16 -26
-32 -26 -36 0 -4 21 -24 47 -44 107 -81 196 -220 218 -338 3 -13 7 -34 10 -48
12 -58 5 -188 -15 -260 -11 -41 -22 -82 -24 -90 -2 -8 -22 -57 -45 -108 -69
-157 -113 -301 -145 -477 -26 -142 -28 -535 -3 -670 50 -273 171 -538 360
-788 82 -109 327 -354 452 -453 287 -227 650 -438 983 -571 71 -29 54 -32 242
50 267 118 542 277 766 442 80 59 82 61 193 156 268 227 509 542 611 799 12
30 26 64 31 75 30 71 74 245 84 330 3 28 8 60 11 73 5 27 6 351 0 397 -2 17
-7 59 -11 95 -4 36 -9 72 -10 80 -15 108 -67 279 -129 427 -91 217 -106 281
-102 418 6 191 88 352 240 467 l46 36 -47 53 c-27 30 -52 59 -58 65 -5 6 -39
44 -75 84 -286 325 -383 429 -394 423 -6 -3 -36 -23 -66 -43 -109 -72 -315
-164 -413 -184 -12 -3 -33 -8 -47 -11 -54 -14 -248 -14 -311 1 -143 32 -265
87 -406 181 l-95 63 -36 -28 c-87 -68 -259 -161 -328 -178 -16 -4 -33 -9 -39
-13 -5 -3 -14 -6 -20 -8 -5 -1 -39 -8 -75 -17 -88 -20 -261 -14 -362 13 -137
36 -292 107 -422 192 -32 22 -59 39 -61 39 -1 0 -24 -25 -51 -56z m2258 -1561
l148 -148 -632 -632 c-348 -348 -637 -633 -642 -633 -11 0 -736 725 -736 736
0 5 66 75 147 156 l147 147 197 -197 c108 -108 208 -208 223 -221 l25 -24 482
482 c264 264 484 481 487 481 4 0 73 -66 154 -147z"/>
</g>
</svg>
